# xmcd
#
# Track frame offsets: 
#        150
#        10023
#        20919
#        34110
#        45480
#        57390
#        69492
#        80186
#        93309
#        104054
#        116646
#        128247
#        138428
#        151927
#        164654
#        177274
#
# Disc length: 2510 seconds
#
# Revision: 0
# Processed by: cddbd v1.5.2PL0 Copyright (c) Steve Scherf et al.
# Submitted via: ExactAudioCopy v0.95b4
#
DISCID=df09cc10
DTITLE=Various Artist - Northern Soul at the Trades Club
DYEAR=1900
DGENRE=
TTITLE0=Irma and the Larks - Without You Baby
TTITLE1=Joe Simon - I See Your Face
TTITLE2=The Intertains - Gotta Find a Girl
TTITLE3=Darrow Fletcher - My Young Misery
TTITLE4=Dianne Cunningham - Certain Kind Of Lover
TTITLE5=Eddie Floyd - I've Never Found a Girl
TTITLE6=Candace Love - Wonderful Night
TTITLE7=Bettye Swan - Fallin Love With Me
TTITLE8=Bobby McClure - I'll be true to You
TTITLE9=The Incredibles - Another Dirty Deal
TTITLE10=The Intertains - I See the Light
TTITLE11=Jo Ann Garret - Just Say When
TTITLE12=The Magicians - Is IT All Gone
TTITLE13=Venecia Wilson ? This Time I'm Loving You
TTITLE14=Tommy Butler - Right on up to the Weekend
TTITLE15=? - Instrumental
EXTD=
EXTT0=
EXTT1=
EXTT2=
EXTT3=
EXTT4=
EXTT5=
EXTT6=
EXTT7=
EXTT8=
EXTT9=
EXTT10=
EXTT11=
EXTT12=
EXTT13=
EXTT14=
EXTT15=
PLAYORDER=
